PathFileType  4	(X/Y/Z) C:\Users\antoi\Documents\MyRepositories\mobilecap\ResultsAnalysis
DataRate	CameraRate	NumFrames	NumMarkers	Units	OrigDataRate	OrigDataStartFrame	OrigNumFrames
100.0	100.0	4	51	mm	100.0	115	131
Frame#	Time	r_knee			r_shank_antsup			r_ankle			r_calc			r_5meta			r_toe			L_knee			L_shank_antsup			L_ankle			L_calc			L_5meta			L_toe			r_sh2			r_sh3			r_sh4			L_sh2			L_sh3			r_thigh1			r_thigh2			r_thigh3			r_thigh4			r_thigh5			L_thigh1			L_thigh2			L_thigh3			L_thigh4			r.ASIS			r.PSIS			L.ASIS			L.PSIS			C7			R_Shoulder			L_Shoulder			R_Sternum			L_Sternum			R_humerus			R_elbow_med			R_elbow_lat			R_forearm			R_wrist_radius			R_wrist_ulna			L_humerus			L_elbow_med			L_elbow_lat			L_forearm			L_wrist_radius			L_wrist_ulna			R_HJC			L_HJC			R_HJC_reg			L_HJC_reg			
		X1	Y1	Z1	X2	Y2	Z2	X3	Y3	Z3	X4	Y4	Z4	X5	Y5	Z5	X6	Y6	Z6	X7	Y7	Z7	X8	Y8	Z8	X9	Y9	Z9	X10	Y10	Z10	X11	Y11	Z11	X12	Y12	Z12	X13	Y13	Z13	X14	Y14	Z14	X15	Y15	Z15	X16	Y16	Z16	X17	Y17	Z17	X18	Y18	Z18	X19	Y19	Z19	X20	Y20	Z20	X21	Y21	Z21	X22	Y22	Z22	X23	Y23	Z23	X24	Y24	Z24	X25	Y25	Z25	X26	Y26	Z26	X27	Y27	Z27	X28	Y28	Z28	X29	Y29	Z29	X30	Y30	Z30	X31	Y31	Z31	X32	Y32	Z32	X33	Y33	Z33	X34	Y34	Z34	X35	Y35	Z35	X36	Y36	Z36	X37	Y37	Z37	X38	Y38	Z38	X39	Y39	Z39	X40	Y40	Z40	X41	Y41	Z41	X42	Y42	Z42	X43	Y43	Z43	X44	Y44	Z44	X45	Y45	Z45	X46	Y46	Z46	X47	Y47	Z47	X48	Y48	Z48	X49	Y49	Z49	X50	Y50	Z50	X51	Y51	Z51	

115	1.14000000	1418.02179	483.23173	-53.33063	1466.93315	448.65674	-67.57871	1469.47159	87.98106	-103.28298	1417.99694	57.87186	-155.91594	1604.56349	41.35303	-66.05718	1642.10203	73.79141	-117.83313	1139.73106	460.28049	-331.94600	1118.17377	371.98176	-345.84595	886.85495	139.76330	-288.57245	812.67780	131.95168	-236.06148	970.01494	37.24857	-302.98698	1016.20689	47.00933	-251.48799	1489.17092	337.51929	-84.73753	1405.72166	427.50462	-24.79371	1428.65374	314.02909	-29.62575	1050.52681	431.69146	-351.54031	975.71414	337.18568	-345.73100	1388.11952	783.51587	-104.60005	1433.56388	681.84925	-102.20522	1432.38867	658.18284	-38.52227	1338.17539	762.72281	-6.43454	1384.33939	657.77095	-7.58900	1257.09326	765.52480	-362.08840	1230.67069	627.52880	-360.81749	1145.59108	786.42124	-358.80398	1119.42898	653.56844	-333.72826	1339.98143	927.11676	-74.00554	1140.26339	956.71937	-127.76905	1321.45818	907.00935	-308.16017	1131.38130	957.75041	-225.70747	1198.28766	1431.58823	-202.15366	1241.09801	1394.00162	-37.79933	1259.42769	1374.04242	-355.97194	1300.06957	1326.75029	-176.06290	1302.76641	1322.12570	-215.06306	1171.40325	1165.26480	51.02283	1090.72965	1095.67903	11.59041	1113.67172	1091.38587	69.14857	1123.08698	951.54947	98.35030	1122.89712	842.34894	92.88846	1088.38115	855.68706	119.20423	1304.72555	1153.94230	-436.03450	1290.51167	1033.92043	-396.18055	1311.24441	1046.56896	-451.91104	1453.19671	1006.50661	-441.45453	1549.36530	977.93843	-398.51773	1538.77197	941.49856	-423.95711	1262.23264	843.78218	-95.50826	1232.13595	841.15707	-283.75153	1269.45702	843.92419	-100.84981	1255.39852	845.57127	-255.79585	
116	1.15000000	1432.55546	484.67120	-53.37078	1480.52967	448.72558	-68.44262	1472.26173	87.88602	-103.07525	1419.09611	58.92596	-155.70202	1606.14467	38.55262	-66.53660	1644.23483	69.09786	-118.82969	1159.93632	458.75626	-331.43080	1135.15509	371.44780	-345.71521	896.28948	148.03400	-290.32192	822.19422	145.20512	-238.08279	972.30010	38.68634	-303.23646	1018.83036	46.33521	-251.94852	1499.51094	336.92916	-85.72822	1420.00326	429.03447	-23.93706	1440.32615	315.16718	-28.62978	1070.62640	433.72221	-350.68869	992.32954	342.36239	-345.70776	1401.49875	785.37739	-106.12420	1446.93097	683.75234	-104.26246	1447.88923	660.83661	-40.29941	1354.36123	765.38654	-6.43059	1400.65066	660.58453	-8.12872	1272.68283	764.92292	-359.64199	1248.26497	626.58991	-359.37252	1160.91397	784.21855	-355.90021	1136.83029	651.08338	-331.84491	1354.04870	929.21170	-72.54777	1153.95196	957.70189	-126.82035	1335.82001	906.98934	-305.77220	1145.29228	957.78378	-224.87214	1211.72711	1432.08997	-200.32079	1254.70812	1394.13530	-35.97363	1272.65077	1374.42941	-354.56629	1313.63775	1327.21629	-174.44520	1316.24716	1322.70126	-213.43216	1187.73802	1164.17975	52.16470	1108.13732	1093.54837	12.35717	1130.78364	1089.60516	70.01314	1141.94993	949.94839	99.35271	1143.09680	840.71441	93.92260	1108.61704	853.71974	120.03741	1314.76019	1153.22708	-434.64371	1298.86685	1033.78530	-394.49113	1319.80291	1045.76369	-450.08772	1461.08980	1003.19016	-440.39176	1556.88332	972.89084	-397.93507	1545.33223	936.78096	-423.38221	1276.35994	845.49204	-93.17078	1246.70388	841.00268	-281.43878	1283.65229	845.84066	-98.62564	1270.00127	845.98373	-253.12245	
117	1.16000000	1446.45909	486.16464	-53.43490	1493.37670	448.80766	-69.09143	1474.43866	87.98341	-102.81680	1419.83245	59.59475	-155.47954	1607.16929	36.87137	-66.78615	1645.41217	65.60578	-119.65394	1181.70248	457.22662	-331.31520	1153.77275	370.94481	-345.54201	907.59934	157.15742	-292.11297	833.98143	159.83703	-240.21235	975.28334	41.12274	-303.58627	1021.91535	46.06348	-252.37397	1508.92736	336.38873	-86.53306	1433.40019	430.61836	-23.11882	1450.84441	316.35190	-27.73179	1092.50348	435.74096	-350.23884	1010.88101	347.47910	-345.84352	1414.27467	787.36799	-107.53798	1459.87082	685.88409	-106.08444	1462.98468	663.73226	-41.82950	1370.13931	768.25678	-6.27346	1416.57712	663.64958	-8.43764	1288.52674	764.64513	-357.21994	1266.62624	625.91932	-358.08935	1176.44374	781.88691	-352.93289	1154.95599	648.39374	-330.17364	1367.86330	931.72202	-71.01021	1167.38704	958.95622	-125.90012	1349.81594	907.24246	-303.36498	1158.92017	958.08608	-224.04079	1225.11561	1432.93390	-198.53157	1268.33456	1394.64399	-34.22199	1285.86267	1375.22348	-353.17156	1327.15275	1328.03770	-172.88882	1329.71517	1323.61732	-211.87123	1204.38530	1163.44413	53.25788	1125.99507	1091.67227	13.05740	1148.30011	1088.12668	70.83371	1161.45813	948.68669	100.34316	1164.21263	839.47644	94.98152	1129.65713	851.96624	120.80400	1324.57388	1152.91059	-433.22911	1306.90103	1034.13751	-392.73802	1328.01018	1045.42263	-448.21823	1468.40499	999.79105	-439.34200	1563.70423	967.34618	-397.45739	1551.05420	931.60954	-422.88482	1290.23147	847.57534	-90.77162	1261.00186	841.10474	-279.04723	1297.62659	848.02766	-96.31147	1284.32838	846.67069	-250.40753	
118	1.17000000	1459.36885	487.50635	-53.49305	1505.24379	448.75591	-69.46202	1476.05578	88.19515	-102.56118	1420.27382	59.96925	-155.28961	1607.76203	36.02443	-66.89980	1645.85455	63.09961	-120.34857	1204.92604	455.74418	-331.56510	1174.14045	370.53710	-345.33423	920.88603	167.05484	-293.86316	848.24222	175.65651	-242.37405	979.10430	44.76399	-304.05498	1025.54377	46.40498	-252.77185	1517.39172	335.80975	-87.10493	1445.62147	432.04643	-22.36884	1460.07060	317.39187	-27.00565	1116.01260	437.74758	-350.17860	1031.31617	352.47277	-346.11894	1426.67855	789.26289	-108.43187	1472.42936	687.91342	-107.25807	1477.33056	666.37375	-42.76335	1385.20976	770.95382	-5.80750	1431.64089	666.49965	-8.35489	1304.50797	764.71076	-354.90836	1285.61566	625.54994	-357.00925	1192.09021	779.45771	-349.99984	1173.68543	645.55045	-328.72670	1381.43290	934.42838	-69.42756	1180.60981	960.42992	-124.93277	1363.43644	907.78202	-301.04059	1172.23309	958.65654	-223.12402	1238.42117	1434.06651	-196.80137	1281.97835	1395.50311	-32.56709	1299.01183	1376.40264	-351.78737	1340.59137	1329.17628	-171.42339	1343.10527	1324.82293	-210.40879	1221.26397	1163.08522	54.31511	1144.23184	1090.09408	13.70107	1166.14755	1086.97414	71.62429	1181.56635	947.80184	101.32162	1186.28392	838.71009	96.07191	1151.45513	850.48556	121.51469	1334.21292	1153.00453	-431.78336	1314.78169	1034.90255	-390.85951	1335.92194	1045.57408	-446.31535	1475.15255	996.34562	-438.28776	1569.83456	961.35796	-397.09182	1555.98629	926.00940	-422.42798	1303.84438	849.86848	-88.40252	1274.95646	841.49285	-276.66397	1311.38821	850.37577	-93.94845	1298.26970	847.60266	-247.70971	
